<mxfile host="app.diagrams.net" modified="2023-06-09T19:06:50.890Z" agent="Mozilla/5.0 (X11; Linux x86_64; rv:109.0) Gecko/20100101 Firefox/113.0" etag="K9gh7RVPUcoeEFDTnTh5" version="21.3.8" type="device">
  <diagram name="Page-1" id="qQCsbmFtiBFMgOcqyGXc">
    <mxGraphModel dx="627" dy="431" grid="1" gridSize="10" guides="1" tooltips="1" connect="1" arrows="1" fold="1" page="1" pageScale="1" pageWidth="850" pageHeight="1100" math="1" shadow="0">
      <root>
        <mxCell id="0" />
        <mxCell id="1" parent="0" />
        <mxCell id="98bF5p4SYVcPBmFiXfol-10" value="&lt;font style=&quot;font-size: 24px;&quot;&gt;$$y$$&lt;/font&gt;" style="rounded=0;whiteSpace=wrap;html=1;strokeColor=none;" parent="1" vertex="1">
          <mxGeometry x="570" y="170" width="120" height="60" as="geometry" />
        </mxCell>
        <mxCell id="gjjCGxOiEG8Ti1tQG0iB-4" style="edgeStyle=orthogonalEdgeStyle;rounded=0;orthogonalLoop=1;jettySize=auto;html=1;exitX=0.5;exitY=0;exitDx=0;exitDy=0;entryX=0.5;entryY=1;entryDx=0;entryDy=0;" parent="1" source="7nbwtN7D6u6dlneCxtmq-1" target="gjjCGxOiEG8Ti1tQG0iB-1" edge="1">
          <mxGeometry relative="1" as="geometry" />
        </mxCell>
        <mxCell id="7nbwtN7D6u6dlneCxtmq-1" value="&lt;div style=&quot;font-size: 24px;&quot;&gt;&lt;font style=&quot;font-size: 24px;&quot;&gt;$$\textbf{x}_1$$&lt;/font&gt;&lt;/div&gt;" style="ellipse;whiteSpace=wrap;html=1;aspect=fixed;" parent="1" vertex="1">
          <mxGeometry x="170" y="462" width="80" height="78" as="geometry" />
        </mxCell>
        <mxCell id="7nbwtN7D6u6dlneCxtmq-3" value="&lt;font style=&quot;font-size: 24px;&quot;&gt;$$f$$&lt;/font&gt;" style="ellipse;whiteSpace=wrap;html=1;aspect=fixed;" parent="1" vertex="1">
          <mxGeometry x="590" y="221" width="80" height="80" as="geometry" />
        </mxCell>
        <mxCell id="gjjCGxOiEG8Ti1tQG0iB-16" style="edgeStyle=orthogonalEdgeStyle;rounded=0;orthogonalLoop=1;jettySize=auto;html=1;exitX=1;exitY=0.5;exitDx=0;exitDy=0;entryX=0;entryY=0.5;entryDx=0;entryDy=0;" parent="1" source="98bF5p4SYVcPBmFiXfol-5" target="98bF5p4SYVcPBmFiXfol-7" edge="1">
          <mxGeometry relative="1" as="geometry" />
        </mxCell>
        <mxCell id="gjjCGxOiEG8Ti1tQG0iB-17" value="$$\ldots$$" style="edgeLabel;html=1;align=center;verticalAlign=middle;resizable=0;points=[];fontSize=24;" parent="gjjCGxOiEG8Ti1tQG0iB-16" vertex="1" connectable="0">
          <mxGeometry x="0.2436" y="1" relative="1" as="geometry">
            <mxPoint x="-21" y="1" as="offset" />
          </mxGeometry>
        </mxCell>
        <mxCell id="98bF5p4SYVcPBmFiXfol-5" value="&lt;font style=&quot;font-size: 24px;&quot;&gt;$$f$$&lt;/font&gt;" style="ellipse;whiteSpace=wrap;html=1;aspect=fixed;" parent="1" vertex="1">
          <mxGeometry x="354" y="340" width="80" height="80" as="geometry" />
        </mxCell>
        <mxCell id="gjjCGxOiEG8Ti1tQG0iB-11" value="" style="edgeStyle=orthogonalEdgeStyle;rounded=0;orthogonalLoop=1;jettySize=auto;html=1;" parent="1" source="98bF5p4SYVcPBmFiXfol-7" target="7nbwtN7D6u6dlneCxtmq-3" edge="1">
          <mxGeometry relative="1" as="geometry" />
        </mxCell>
        <mxCell id="98bF5p4SYVcPBmFiXfol-7" value="&lt;font style=&quot;font-size: 24px;&quot;&gt;$$f$$&lt;/font&gt;" style="ellipse;whiteSpace=wrap;html=1;aspect=fixed;" parent="1" vertex="1">
          <mxGeometry x="590" y="340" width="80" height="80" as="geometry" />
        </mxCell>
        <mxCell id="gjjCGxOiEG8Ti1tQG0iB-8" style="edgeStyle=orthogonalEdgeStyle;rounded=0;orthogonalLoop=1;jettySize=auto;html=1;exitX=0.5;exitY=0;exitDx=0;exitDy=0;" parent="1" source="gjjCGxOiEG8Ti1tQG0iB-1" edge="1">
          <mxGeometry relative="1" as="geometry">
            <mxPoint x="210" y="340" as="targetPoint" />
          </mxGeometry>
        </mxCell>
        <mxCell id="gjjCGxOiEG8Ti1tQG0iB-14" value="" style="edgeStyle=orthogonalEdgeStyle;rounded=0;orthogonalLoop=1;jettySize=auto;html=1;fontSize=24;" parent="1" source="gjjCGxOiEG8Ti1tQG0iB-1" target="98bF5p4SYVcPBmFiXfol-5" edge="1">
          <mxGeometry relative="1" as="geometry" />
        </mxCell>
        <mxCell id="QYdYVzF9cbBeIx2V-Ah6-1" value="$$h_1$$" style="edgeLabel;html=1;align=center;verticalAlign=middle;resizable=0;points=[];fontSize=24;" vertex="1" connectable="0" parent="gjjCGxOiEG8Ti1tQG0iB-14">
          <mxGeometry x="0.1291" y="1" relative="1" as="geometry">
            <mxPoint x="-9" y="1" as="offset" />
          </mxGeometry>
        </mxCell>
        <mxCell id="gjjCGxOiEG8Ti1tQG0iB-1" value="&lt;div&gt;&lt;font style=&quot;font-size: 24px;&quot;&gt;$$f$$&lt;/font&gt;&lt;/div&gt;" style="ellipse;whiteSpace=wrap;html=1;aspect=fixed;" parent="1" vertex="1">
          <mxGeometry x="170" y="340" width="80" height="80" as="geometry" />
        </mxCell>
        <mxCell id="gjjCGxOiEG8Ti1tQG0iB-13" value="" style="edgeStyle=orthogonalEdgeStyle;rounded=0;orthogonalLoop=1;jettySize=auto;html=1;" parent="1" source="gjjCGxOiEG8Ti1tQG0iB-2" target="98bF5p4SYVcPBmFiXfol-5" edge="1">
          <mxGeometry relative="1" as="geometry" />
        </mxCell>
        <mxCell id="gjjCGxOiEG8Ti1tQG0iB-2" value="&lt;div style=&quot;font-size: 24px;&quot;&gt;&lt;font style=&quot;font-size: 24px;&quot;&gt;$$\textbf{x}_2$$&lt;/font&gt;&lt;/div&gt;" style="ellipse;whiteSpace=wrap;html=1;aspect=fixed;" parent="1" vertex="1">
          <mxGeometry x="354" y="462" width="80" height="78" as="geometry" />
        </mxCell>
        <mxCell id="gjjCGxOiEG8Ti1tQG0iB-12" value="" style="edgeStyle=orthogonalEdgeStyle;rounded=0;orthogonalLoop=1;jettySize=auto;html=1;" parent="1" source="gjjCGxOiEG8Ti1tQG0iB-3" target="98bF5p4SYVcPBmFiXfol-7" edge="1">
          <mxGeometry relative="1" as="geometry" />
        </mxCell>
        <mxCell id="gjjCGxOiEG8Ti1tQG0iB-3" value="&lt;div style=&quot;font-size: 24px;&quot;&gt;&lt;font style=&quot;font-size: 24px;&quot;&gt;$$\textbf{x}_l$$&lt;/font&gt;&lt;/div&gt;" style="ellipse;whiteSpace=wrap;html=1;aspect=fixed;" parent="1" vertex="1">
          <mxGeometry x="590" y="462" width="80" height="78" as="geometry" />
        </mxCell>
      </root>
    </mxGraphModel>
  </diagram>
</mxfile>
